<mxfile host="app.diagrams.net" modified="2024-05-12T10:29:56.557Z" agent="Mozilla/5.0 (Windows NT 10.0; Win64; x64) AppleWebKit/537.36 (KHTML, like Gecko) Chrome/124.0.0.0 Safari/537.36" etag="iu25QgZ8iFj1Z24LIKQ_" version="24.4.0" type="device">
  <diagram name="PÃ¡gina-1" id="EA7aN-TBTle9Otq8R43J">
    <mxGraphModel dx="2073" dy="1615" grid="1" gridSize="10" guides="1" tooltips="1" connect="1" arrows="1" fold="1" page="1" pageScale="1" pageWidth="827" pageHeight="1169" math="0" shadow="0">
      <root>
        <mxCell id="0" />
        <mxCell id="1" parent="0" />
        <mxCell id="FW-JDr_s4PCAu5C2hTzt-4" style="edgeStyle=orthogonalEdgeStyle;rounded=0;orthogonalLoop=1;jettySize=auto;html=1;exitX=1;exitY=0.5;exitDx=0;exitDy=0;entryX=-0.008;entryY=0.62;entryDx=0;entryDy=0;entryPerimeter=0;" parent="1" source="FW-JDr_s4PCAu5C2hTzt-1" target="FW-JDr_s4PCAu5C2hTzt-2" edge="1">
          <mxGeometry relative="1" as="geometry">
            <mxPoint x="248.13" y="150" as="targetPoint" />
            <Array as="points">
              <mxPoint x="247.13" y="150" />
            </Array>
          </mxGeometry>
        </mxCell>
        <mxCell id="0ktrd48kV1cv61AAb-M5-20" style="edgeStyle=orthogonalEdgeStyle;rounded=0;orthogonalLoop=1;jettySize=auto;html=1;exitX=0.5;exitY=0;exitDx=0;exitDy=0;" parent="1" source="FW-JDr_s4PCAu5C2hTzt-1" target="0ktrd48kV1cv61AAb-M5-16" edge="1">
          <mxGeometry relative="1" as="geometry" />
        </mxCell>
        <mxCell id="0ktrd48kV1cv61AAb-M5-21" style="edgeStyle=orthogonalEdgeStyle;rounded=0;orthogonalLoop=1;jettySize=auto;html=1;exitX=1;exitY=0;exitDx=0;exitDy=0;entryX=0;entryY=0.5;entryDx=0;entryDy=0;" parent="1" source="FW-JDr_s4PCAu5C2hTzt-1" target="0ktrd48kV1cv61AAb-M5-17" edge="1">
          <mxGeometry relative="1" as="geometry" />
        </mxCell>
        <mxCell id="0ktrd48kV1cv61AAb-M5-22" style="edgeStyle=orthogonalEdgeStyle;rounded=0;orthogonalLoop=1;jettySize=auto;html=1;exitX=0;exitY=0.25;exitDx=0;exitDy=0;entryX=0.5;entryY=1;entryDx=0;entryDy=0;" parent="1" source="FW-JDr_s4PCAu5C2hTzt-1" target="0ktrd48kV1cv61AAb-M5-18" edge="1">
          <mxGeometry relative="1" as="geometry" />
        </mxCell>
        <mxCell id="0ktrd48kV1cv61AAb-M5-23" style="edgeStyle=orthogonalEdgeStyle;rounded=0;orthogonalLoop=1;jettySize=auto;html=1;exitX=0.5;exitY=1;exitDx=0;exitDy=0;entryX=1;entryY=0.5;entryDx=0;entryDy=0;" parent="1" source="FW-JDr_s4PCAu5C2hTzt-1" target="0ktrd48kV1cv61AAb-M5-19" edge="1">
          <mxGeometry relative="1" as="geometry" />
        </mxCell>
        <mxCell id="0ktrd48kV1cv61AAb-M5-25" style="edgeStyle=orthogonalEdgeStyle;rounded=0;orthogonalLoop=1;jettySize=auto;html=1;exitX=0.75;exitY=1;exitDx=0;exitDy=0;" parent="1" source="FW-JDr_s4PCAu5C2hTzt-1" target="0ktrd48kV1cv61AAb-M5-24" edge="1">
          <mxGeometry relative="1" as="geometry" />
        </mxCell>
        <mxCell id="wy2KGiXOY7XyAVy5TqoR-2" style="edgeStyle=orthogonalEdgeStyle;rounded=0;orthogonalLoop=1;jettySize=auto;html=1;exitX=1;exitY=0.75;exitDx=0;exitDy=0;entryX=0;entryY=0.5;entryDx=0;entryDy=0;" parent="1" source="FW-JDr_s4PCAu5C2hTzt-1" target="wy2KGiXOY7XyAVy5TqoR-1" edge="1">
          <mxGeometry relative="1" as="geometry" />
        </mxCell>
        <mxCell id="wy2KGiXOY7XyAVy5TqoR-13" style="edgeStyle=orthogonalEdgeStyle;rounded=0;orthogonalLoop=1;jettySize=auto;html=1;exitX=0.5;exitY=1;exitDx=0;exitDy=0;entryX=0.5;entryY=0;entryDx=0;entryDy=0;" parent="1" source="FW-JDr_s4PCAu5C2hTzt-1" target="wy2KGiXOY7XyAVy5TqoR-3" edge="1">
          <mxGeometry relative="1" as="geometry">
            <mxPoint x="-40.00000000000023" y="950" as="targetPoint" />
          </mxGeometry>
        </mxCell>
        <mxCell id="wy2KGiXOY7XyAVy5TqoR-17" style="edgeStyle=orthogonalEdgeStyle;rounded=0;orthogonalLoop=1;jettySize=auto;html=1;exitX=0.75;exitY=0;exitDx=0;exitDy=0;entryX=0;entryY=0.5;entryDx=0;entryDy=0;" parent="1" source="FW-JDr_s4PCAu5C2hTzt-1" target="wy2KGiXOY7XyAVy5TqoR-16" edge="1">
          <mxGeometry relative="1" as="geometry" />
        </mxCell>
        <mxCell id="qUaDmYmvCXXhJOkRJQls-21" style="edgeStyle=orthogonalEdgeStyle;rounded=0;orthogonalLoop=1;jettySize=auto;html=1;exitX=0.5;exitY=1;exitDx=0;exitDy=0;entryX=0;entryY=0.5;entryDx=0;entryDy=0;" parent="1" source="FW-JDr_s4PCAu5C2hTzt-1" target="tZ9dOB1mtpPrXh-z9F5N-1" edge="1">
          <mxGeometry relative="1" as="geometry" />
        </mxCell>
        <mxCell id="QuN_vF9S27K4gE4ot9k8-2" style="edgeStyle=orthogonalEdgeStyle;rounded=0;orthogonalLoop=1;jettySize=auto;html=1;exitX=0.5;exitY=1;exitDx=0;exitDy=0;entryX=0;entryY=0.5;entryDx=0;entryDy=0;" parent="1" source="FW-JDr_s4PCAu5C2hTzt-1" target="QuN_vF9S27K4gE4ot9k8-1" edge="1">
          <mxGeometry relative="1" as="geometry" />
        </mxCell>
        <mxCell id="FW-JDr_s4PCAu5C2hTzt-1" value="&lt;div&gt;&lt;br&gt;&lt;/div&gt;Productos&lt;div&gt;&lt;br&gt;&lt;/div&gt;" style="rounded=0;whiteSpace=wrap;html=1;" parent="1" vertex="1">
          <mxGeometry x="-100" y="120" width="120" height="60" as="geometry" />
        </mxCell>
        <mxCell id="0ktrd48kV1cv61AAb-M5-38" style="edgeStyle=orthogonalEdgeStyle;rounded=0;orthogonalLoop=1;jettySize=auto;html=1;exitX=0.5;exitY=0;exitDx=0;exitDy=0;entryX=0.5;entryY=1;entryDx=0;entryDy=0;" parent="1" source="FW-JDr_s4PCAu5C2hTzt-2" target="0ktrd48kV1cv61AAb-M5-29" edge="1">
          <mxGeometry relative="1" as="geometry" />
        </mxCell>
        <mxCell id="0ktrd48kV1cv61AAb-M5-39" style="edgeStyle=orthogonalEdgeStyle;rounded=0;orthogonalLoop=1;jettySize=auto;html=1;exitX=0.75;exitY=0;exitDx=0;exitDy=0;entryX=0;entryY=0.5;entryDx=0;entryDy=0;" parent="1" source="FW-JDr_s4PCAu5C2hTzt-2" target="0ktrd48kV1cv61AAb-M5-35" edge="1">
          <mxGeometry relative="1" as="geometry" />
        </mxCell>
        <mxCell id="0ktrd48kV1cv61AAb-M5-40" style="edgeStyle=orthogonalEdgeStyle;rounded=0;orthogonalLoop=1;jettySize=auto;html=1;exitX=0.5;exitY=1;exitDx=0;exitDy=0;entryX=0.5;entryY=0;entryDx=0;entryDy=0;" parent="1" source="FW-JDr_s4PCAu5C2hTzt-2" target="0ktrd48kV1cv61AAb-M5-30" edge="1">
          <mxGeometry relative="1" as="geometry" />
        </mxCell>
        <mxCell id="0ktrd48kV1cv61AAb-M5-41" style="edgeStyle=orthogonalEdgeStyle;rounded=0;orthogonalLoop=1;jettySize=auto;html=1;exitX=0.75;exitY=1;exitDx=0;exitDy=0;entryX=0;entryY=0.5;entryDx=0;entryDy=0;" parent="1" source="FW-JDr_s4PCAu5C2hTzt-2" target="0ktrd48kV1cv61AAb-M5-37" edge="1">
          <mxGeometry relative="1" as="geometry" />
        </mxCell>
        <mxCell id="0ktrd48kV1cv61AAb-M5-64" style="edgeStyle=orthogonalEdgeStyle;rounded=0;orthogonalLoop=1;jettySize=auto;html=1;exitX=0.75;exitY=1;exitDx=0;exitDy=0;entryX=0.5;entryY=0;entryDx=0;entryDy=0;" parent="1" source="FW-JDr_s4PCAu5C2hTzt-2" target="0ktrd48kV1cv61AAb-M5-53" edge="1">
          <mxGeometry relative="1" as="geometry" />
        </mxCell>
        <mxCell id="FW-JDr_s4PCAu5C2hTzt-2" value="Valoraciones" style="rounded=0;whiteSpace=wrap;html=1;" parent="1" vertex="1">
          <mxGeometry x="178.13" y="115" width="120" height="60" as="geometry" />
        </mxCell>
        <mxCell id="FW-JDr_s4PCAu5C2hTzt-6" style="edgeStyle=orthogonalEdgeStyle;rounded=0;orthogonalLoop=1;jettySize=auto;html=1;exitX=0;exitY=0.5;exitDx=0;exitDy=0;entryX=1;entryY=0.5;entryDx=0;entryDy=0;" parent="1" source="FW-JDr_s4PCAu5C2hTzt-3" target="FW-JDr_s4PCAu5C2hTzt-2" edge="1">
          <mxGeometry relative="1" as="geometry" />
        </mxCell>
        <mxCell id="FW-JDr_s4PCAu5C2hTzt-13" style="edgeStyle=orthogonalEdgeStyle;rounded=0;orthogonalLoop=1;jettySize=auto;html=1;exitX=0.5;exitY=1;exitDx=0;exitDy=0;entryX=0.5;entryY=0;entryDx=0;entryDy=0;" parent="1" source="FW-JDr_s4PCAu5C2hTzt-3" target="FW-JDr_s4PCAu5C2hTzt-12" edge="1">
          <mxGeometry relative="1" as="geometry" />
        </mxCell>
        <mxCell id="0ktrd48kV1cv61AAb-M5-2" style="edgeStyle=orthogonalEdgeStyle;rounded=0;orthogonalLoop=1;jettySize=auto;html=1;exitX=0.5;exitY=0;exitDx=0;exitDy=0;" parent="1" source="FW-JDr_s4PCAu5C2hTzt-3" target="0ktrd48kV1cv61AAb-M5-1" edge="1">
          <mxGeometry relative="1" as="geometry" />
        </mxCell>
        <mxCell id="0ktrd48kV1cv61AAb-M5-9" style="edgeStyle=orthogonalEdgeStyle;rounded=0;orthogonalLoop=1;jettySize=auto;html=1;exitX=1.042;exitY=0.628;exitDx=0;exitDy=0;entryX=0.25;entryY=0;entryDx=0;entryDy=0;exitPerimeter=0;" parent="1" edge="1">
          <mxGeometry relative="1" as="geometry">
            <mxPoint x="1204.95" y="642" as="targetPoint" />
            <mxPoint x="640.04" y="489.67999999999984" as="sourcePoint" />
            <Array as="points">
              <mxPoint x="640" y="470" />
              <mxPoint x="1205" y="470" />
            </Array>
          </mxGeometry>
        </mxCell>
        <mxCell id="0ktrd48kV1cv61AAb-M5-74" style="edgeStyle=orthogonalEdgeStyle;rounded=0;orthogonalLoop=1;jettySize=auto;html=1;exitX=0;exitY=0;exitDx=0;exitDy=0;entryX=1;entryY=1;entryDx=0;entryDy=0;" parent="1" target="0ktrd48kV1cv61AAb-M5-68" edge="1">
          <mxGeometry relative="1" as="geometry">
            <mxPoint x="520.13" y="460" as="sourcePoint" />
          </mxGeometry>
        </mxCell>
        <mxCell id="0ktrd48kV1cv61AAb-M5-75" style="edgeStyle=orthogonalEdgeStyle;rounded=0;orthogonalLoop=1;jettySize=auto;html=1;exitX=0.25;exitY=0;exitDx=0;exitDy=0;entryX=1;entryY=1;entryDx=0;entryDy=0;" parent="1" source="FW-JDr_s4PCAu5C2hTzt-3" target="0ktrd48kV1cv61AAb-M5-66" edge="1">
          <mxGeometry relative="1" as="geometry">
            <Array as="points">
              <mxPoint x="550" y="284" />
            </Array>
          </mxGeometry>
        </mxCell>
        <mxCell id="0ktrd48kV1cv61AAb-M5-76" style="edgeStyle=orthogonalEdgeStyle;rounded=0;orthogonalLoop=1;jettySize=auto;html=1;exitX=0.75;exitY=0;exitDx=0;exitDy=0;entryX=0.5;entryY=1;entryDx=0;entryDy=0;" parent="1" source="FW-JDr_s4PCAu5C2hTzt-3" target="0ktrd48kV1cv61AAb-M5-65" edge="1">
          <mxGeometry relative="1" as="geometry" />
        </mxCell>
        <mxCell id="0ktrd48kV1cv61AAb-M5-78" style="edgeStyle=orthogonalEdgeStyle;rounded=0;orthogonalLoop=1;jettySize=auto;html=1;exitX=1;exitY=0.5;exitDx=0;exitDy=0;entryX=0.5;entryY=1;entryDx=0;entryDy=0;" parent="1" source="FW-JDr_s4PCAu5C2hTzt-3" target="0ktrd48kV1cv61AAb-M5-67" edge="1">
          <mxGeometry relative="1" as="geometry" />
        </mxCell>
        <mxCell id="0ktrd48kV1cv61AAb-M5-79" style="edgeStyle=orthogonalEdgeStyle;rounded=0;orthogonalLoop=1;jettySize=auto;html=1;exitX=1;exitY=1;exitDx=0;exitDy=0;entryX=0;entryY=0.5;entryDx=0;entryDy=0;" parent="1" source="FW-JDr_s4PCAu5C2hTzt-3" target="0ktrd48kV1cv61AAb-M5-71" edge="1">
          <mxGeometry relative="1" as="geometry" />
        </mxCell>
        <mxCell id="0ktrd48kV1cv61AAb-M5-80" style="edgeStyle=orthogonalEdgeStyle;rounded=0;orthogonalLoop=1;jettySize=auto;html=1;exitX=0.75;exitY=1;exitDx=0;exitDy=0;entryX=0.5;entryY=0;entryDx=0;entryDy=0;" parent="1" source="FW-JDr_s4PCAu5C2hTzt-3" target="0ktrd48kV1cv61AAb-M5-72" edge="1">
          <mxGeometry relative="1" as="geometry" />
        </mxCell>
        <mxCell id="0ktrd48kV1cv61AAb-M5-82" style="edgeStyle=orthogonalEdgeStyle;rounded=0;orthogonalLoop=1;jettySize=auto;html=1;exitX=0;exitY=1;exitDx=0;exitDy=0;entryX=0.5;entryY=0;entryDx=0;entryDy=0;" parent="1" target="0ktrd48kV1cv61AAb-M5-70" edge="1">
          <mxGeometry relative="1" as="geometry">
            <mxPoint x="520.13" y="520" as="sourcePoint" />
          </mxGeometry>
        </mxCell>
        <mxCell id="tZ9dOB1mtpPrXh-z9F5N-4" style="edgeStyle=orthogonalEdgeStyle;rounded=0;orthogonalLoop=1;jettySize=auto;html=1;exitX=0;exitY=1;exitDx=0;exitDy=0;entryX=1;entryY=0.5;entryDx=0;entryDy=0;" parent="1" source="FW-JDr_s4PCAu5C2hTzt-3" target="tZ9dOB1mtpPrXh-z9F5N-1" edge="1">
          <mxGeometry relative="1" as="geometry" />
        </mxCell>
        <mxCell id="qUaDmYmvCXXhJOkRJQls-6" style="edgeStyle=orthogonalEdgeStyle;rounded=0;orthogonalLoop=1;jettySize=auto;html=1;exitX=0.75;exitY=0;exitDx=0;exitDy=0;entryX=0;entryY=0.5;entryDx=0;entryDy=0;" parent="1" source="FW-JDr_s4PCAu5C2hTzt-3" target="qUaDmYmvCXXhJOkRJQls-5" edge="1">
          <mxGeometry relative="1" as="geometry" />
        </mxCell>
        <mxCell id="QuN_vF9S27K4gE4ot9k8-3" style="edgeStyle=orthogonalEdgeStyle;rounded=0;orthogonalLoop=1;jettySize=auto;html=1;exitX=0;exitY=0;exitDx=0;exitDy=0;entryX=0.5;entryY=1;entryDx=0;entryDy=0;" parent="1" source="FW-JDr_s4PCAu5C2hTzt-3" target="0ktrd48kV1cv61AAb-M5-69" edge="1">
          <mxGeometry relative="1" as="geometry">
            <Array as="points">
              <mxPoint x="432" y="440" />
            </Array>
          </mxGeometry>
        </mxCell>
        <mxCell id="QuN_vF9S27K4gE4ot9k8-4" style="edgeStyle=orthogonalEdgeStyle;rounded=0;orthogonalLoop=1;jettySize=auto;html=1;exitX=0;exitY=0.5;exitDx=0;exitDy=0;entryX=1;entryY=0.5;entryDx=0;entryDy=0;" parent="1" source="FW-JDr_s4PCAu5C2hTzt-3" target="QuN_vF9S27K4gE4ot9k8-1" edge="1">
          <mxGeometry relative="1" as="geometry" />
        </mxCell>
        <mxCell id="FW-JDr_s4PCAu5C2hTzt-3" value="Usuarios" style="rounded=0;whiteSpace=wrap;html=1;" parent="1" vertex="1">
          <mxGeometry x="520" y="440" width="120" height="60" as="geometry" />
        </mxCell>
        <mxCell id="FW-JDr_s4PCAu5C2hTzt-7" value="M" style="text;html=1;align=center;verticalAlign=middle;whiteSpace=wrap;rounded=0;" parent="1" vertex="1">
          <mxGeometry x="158.13" y="135" width="20" height="10" as="geometry" />
        </mxCell>
        <mxCell id="FW-JDr_s4PCAu5C2hTzt-8" value="1" style="text;html=1;align=center;verticalAlign=middle;whiteSpace=wrap;rounded=0;" parent="1" vertex="1">
          <mxGeometry x="8.129999999999999" y="135" width="20" height="10" as="geometry" />
        </mxCell>
        <mxCell id="FW-JDr_s4PCAu5C2hTzt-10" value="M" style="text;html=1;align=center;verticalAlign=middle;whiteSpace=wrap;rounded=0;" parent="1" vertex="1">
          <mxGeometry x="338.13" y="130" width="20" height="10" as="geometry" />
        </mxCell>
        <mxCell id="FW-JDr_s4PCAu5C2hTzt-11" value="1" style="text;html=1;align=center;verticalAlign=middle;whiteSpace=wrap;rounded=0;" parent="1" vertex="1">
          <mxGeometry x="500.13" y="500" width="20" height="10" as="geometry" />
        </mxCell>
        <mxCell id="0ktrd48kV1cv61AAb-M5-110" style="edgeStyle=orthogonalEdgeStyle;rounded=0;orthogonalLoop=1;jettySize=auto;html=1;exitX=0.75;exitY=0;exitDx=0;exitDy=0;" parent="1" source="FW-JDr_s4PCAu5C2hTzt-12" target="0ktrd48kV1cv61AAb-M5-100" edge="1">
          <mxGeometry relative="1" as="geometry" />
        </mxCell>
        <mxCell id="0ktrd48kV1cv61AAb-M5-111" style="edgeStyle=orthogonalEdgeStyle;rounded=0;orthogonalLoop=1;jettySize=auto;html=1;exitX=1;exitY=0;exitDx=0;exitDy=0;entryX=0.5;entryY=1;entryDx=0;entryDy=0;" parent="1" source="FW-JDr_s4PCAu5C2hTzt-12" target="0ktrd48kV1cv61AAb-M5-95" edge="1">
          <mxGeometry relative="1" as="geometry" />
        </mxCell>
        <mxCell id="0ktrd48kV1cv61AAb-M5-112" style="edgeStyle=orthogonalEdgeStyle;rounded=0;orthogonalLoop=1;jettySize=auto;html=1;exitX=0.75;exitY=1;exitDx=0;exitDy=0;entryX=0;entryY=0.5;entryDx=0;entryDy=0;" parent="1" target="0ktrd48kV1cv61AAb-M5-98" edge="1">
          <mxGeometry relative="1" as="geometry">
            <mxPoint x="680.5" y="905" as="sourcePoint" />
          </mxGeometry>
        </mxCell>
        <mxCell id="0ktrd48kV1cv61AAb-M5-113" style="edgeStyle=orthogonalEdgeStyle;rounded=0;orthogonalLoop=1;jettySize=auto;html=1;exitX=0.5;exitY=1;exitDx=0;exitDy=0;entryX=0;entryY=0.5;entryDx=0;entryDy=0;" parent="1" target="0ktrd48kV1cv61AAb-M5-97" edge="1">
          <mxGeometry relative="1" as="geometry">
            <mxPoint x="650.5" y="905" as="sourcePoint" />
          </mxGeometry>
        </mxCell>
        <mxCell id="0ktrd48kV1cv61AAb-M5-114" style="edgeStyle=orthogonalEdgeStyle;rounded=0;orthogonalLoop=1;jettySize=auto;html=1;exitX=0.25;exitY=1;exitDx=0;exitDy=0;entryX=0;entryY=0;entryDx=0;entryDy=0;" parent="1" target="0ktrd48kV1cv61AAb-M5-109" edge="1">
          <mxGeometry relative="1" as="geometry">
            <mxPoint x="620.5" y="905" as="sourcePoint" />
          </mxGeometry>
        </mxCell>
        <mxCell id="0ktrd48kV1cv61AAb-M5-115" style="edgeStyle=orthogonalEdgeStyle;rounded=0;orthogonalLoop=1;jettySize=auto;html=1;exitX=0;exitY=1;exitDx=0;exitDy=0;entryX=0.5;entryY=0;entryDx=0;entryDy=0;" parent="1" target="0ktrd48kV1cv61AAb-M5-92" edge="1">
          <mxGeometry relative="1" as="geometry">
            <mxPoint x="590.5" y="905" as="sourcePoint" />
          </mxGeometry>
        </mxCell>
        <mxCell id="0ktrd48kV1cv61AAb-M5-116" style="edgeStyle=orthogonalEdgeStyle;rounded=0;orthogonalLoop=1;jettySize=auto;html=1;exitX=0;exitY=0.5;exitDx=0;exitDy=0;entryX=1;entryY=0.5;entryDx=0;entryDy=0;" parent="1" source="FW-JDr_s4PCAu5C2hTzt-12" target="0ktrd48kV1cv61AAb-M5-93" edge="1">
          <mxGeometry relative="1" as="geometry" />
        </mxCell>
        <mxCell id="0ktrd48kV1cv61AAb-M5-117" style="edgeStyle=orthogonalEdgeStyle;rounded=0;orthogonalLoop=1;jettySize=auto;html=1;exitX=0;exitY=0.25;exitDx=0;exitDy=0;entryX=1;entryY=0.5;entryDx=0;entryDy=0;" parent="1" source="FW-JDr_s4PCAu5C2hTzt-12" target="0ktrd48kV1cv61AAb-M5-94" edge="1">
          <mxGeometry relative="1" as="geometry" />
        </mxCell>
        <mxCell id="0ktrd48kV1cv61AAb-M5-118" style="edgeStyle=orthogonalEdgeStyle;rounded=0;orthogonalLoop=1;jettySize=auto;html=1;exitX=0.25;exitY=0;exitDx=0;exitDy=0;entryX=1;entryY=0.5;entryDx=0;entryDy=0;" parent="1" source="FW-JDr_s4PCAu5C2hTzt-12" target="0ktrd48kV1cv61AAb-M5-96" edge="1">
          <mxGeometry relative="1" as="geometry" />
        </mxCell>
        <mxCell id="0ktrd48kV1cv61AAb-M5-119" style="edgeStyle=orthogonalEdgeStyle;rounded=0;orthogonalLoop=1;jettySize=auto;html=1;exitX=0;exitY=0;exitDx=0;exitDy=0;entryX=1;entryY=1;entryDx=0;entryDy=0;" parent="1" source="FW-JDr_s4PCAu5C2hTzt-12" target="0ktrd48kV1cv61AAb-M5-108" edge="1">
          <mxGeometry relative="1" as="geometry" />
        </mxCell>
        <mxCell id="tZ9dOB1mtpPrXh-z9F5N-3" style="edgeStyle=orthogonalEdgeStyle;rounded=0;orthogonalLoop=1;jettySize=auto;html=1;exitX=0.25;exitY=0;exitDx=0;exitDy=0;entryX=1;entryY=0.5;entryDx=0;entryDy=0;" parent="1" source="FW-JDr_s4PCAu5C2hTzt-12" target="tZ9dOB1mtpPrXh-z9F5N-2" edge="1">
          <mxGeometry relative="1" as="geometry" />
        </mxCell>
        <mxCell id="qUaDmYmvCXXhJOkRJQls-2" style="edgeStyle=orthogonalEdgeStyle;rounded=0;orthogonalLoop=1;jettySize=auto;html=1;exitX=0.75;exitY=1;exitDx=0;exitDy=0;entryX=0.5;entryY=0;entryDx=0;entryDy=0;" parent="1" source="FW-JDr_s4PCAu5C2hTzt-12" target="qUaDmYmvCXXhJOkRJQls-1" edge="1">
          <mxGeometry relative="1" as="geometry" />
        </mxCell>
        <mxCell id="qUaDmYmvCXXhJOkRJQls-17" style="edgeStyle=orthogonalEdgeStyle;rounded=0;orthogonalLoop=1;jettySize=auto;html=1;exitX=1;exitY=1;exitDx=0;exitDy=0;entryX=1;entryY=0.5;entryDx=0;entryDy=0;" parent="1" source="FW-JDr_s4PCAu5C2hTzt-12" target="qUaDmYmvCXXhJOkRJQls-5" edge="1">
          <mxGeometry relative="1" as="geometry">
            <Array as="points">
              <mxPoint x="640" y="925" />
              <mxPoint x="1120" y="925" />
              <mxPoint x="1120" y="260" />
            </Array>
          </mxGeometry>
        </mxCell>
        <mxCell id="FW-JDr_s4PCAu5C2hTzt-12" value="&lt;div&gt;&lt;br&gt;&lt;/div&gt;Productos&lt;div&gt;SegundaMano&lt;/div&gt;&lt;div&gt;&lt;br&gt;&lt;/div&gt;" style="rounded=0;whiteSpace=wrap;html=1;" parent="1" vertex="1">
          <mxGeometry x="520" y="845" width="120" height="60" as="geometry" />
        </mxCell>
        <mxCell id="FW-JDr_s4PCAu5C2hTzt-14" value="M" style="text;html=1;align=center;verticalAlign=middle;whiteSpace=wrap;rounded=0;" parent="1" vertex="1">
          <mxGeometry x="580" y="825" width="20" height="10" as="geometry" />
        </mxCell>
        <mxCell id="FW-JDr_s4PCAu5C2hTzt-15" value="1" style="text;html=1;align=center;verticalAlign=middle;whiteSpace=wrap;rounded=0;" parent="1" vertex="1">
          <mxGeometry x="580" y="505" width="20" height="10" as="geometry" />
        </mxCell>
        <mxCell id="0ktrd48kV1cv61AAb-M5-54" style="edgeStyle=orthogonalEdgeStyle;rounded=0;orthogonalLoop=1;jettySize=auto;html=1;exitX=0;exitY=0.5;exitDx=0;exitDy=0;entryX=1;entryY=0.5;entryDx=0;entryDy=0;" parent="1" source="0ktrd48kV1cv61AAb-M5-1" target="0ktrd48kV1cv61AAb-M5-51" edge="1">
          <mxGeometry relative="1" as="geometry" />
        </mxCell>
        <mxCell id="0ktrd48kV1cv61AAb-M5-55" style="edgeStyle=orthogonalEdgeStyle;rounded=0;orthogonalLoop=1;jettySize=auto;html=1;exitX=0.25;exitY=0;exitDx=0;exitDy=0;entryX=1;entryY=0.5;entryDx=0;entryDy=0;" parent="1" source="0ktrd48kV1cv61AAb-M5-1" target="0ktrd48kV1cv61AAb-M5-50" edge="1">
          <mxGeometry relative="1" as="geometry" />
        </mxCell>
        <mxCell id="0ktrd48kV1cv61AAb-M5-57" style="edgeStyle=orthogonalEdgeStyle;rounded=0;orthogonalLoop=1;jettySize=auto;html=1;exitX=0.75;exitY=0;exitDx=0;exitDy=0;entryX=0.5;entryY=1;entryDx=0;entryDy=0;" parent="1" source="0ktrd48kV1cv61AAb-M5-1" target="0ktrd48kV1cv61AAb-M5-49" edge="1">
          <mxGeometry relative="1" as="geometry" />
        </mxCell>
        <mxCell id="0ktrd48kV1cv61AAb-M5-58" style="edgeStyle=orthogonalEdgeStyle;rounded=0;orthogonalLoop=1;jettySize=auto;html=1;exitX=1;exitY=0.25;exitDx=0;exitDy=0;entryX=0;entryY=0.5;entryDx=0;entryDy=0;" parent="1" source="0ktrd48kV1cv61AAb-M5-1" target="0ktrd48kV1cv61AAb-M5-47" edge="1">
          <mxGeometry relative="1" as="geometry" />
        </mxCell>
        <mxCell id="0ktrd48kV1cv61AAb-M5-59" style="edgeStyle=orthogonalEdgeStyle;rounded=0;orthogonalLoop=1;jettySize=auto;html=1;exitX=1;exitY=1;exitDx=0;exitDy=0;" parent="1" source="0ktrd48kV1cv61AAb-M5-1" target="0ktrd48kV1cv61AAb-M5-52" edge="1">
          <mxGeometry relative="1" as="geometry" />
        </mxCell>
        <mxCell id="0ktrd48kV1cv61AAb-M5-1" value="ValoracionesUsuarios" style="rounded=0;whiteSpace=wrap;html=1;" parent="1" vertex="1">
          <mxGeometry x="520" y="140" width="120" height="60" as="geometry" />
        </mxCell>
        <mxCell id="0ktrd48kV1cv61AAb-M5-3" value="M" style="text;html=1;align=center;verticalAlign=middle;whiteSpace=wrap;rounded=0;" parent="1" vertex="1">
          <mxGeometry x="580" y="205" width="20" height="10" as="geometry" />
        </mxCell>
        <mxCell id="0ktrd48kV1cv61AAb-M5-4" value="1" style="text;html=1;align=center;verticalAlign=middle;whiteSpace=wrap;rounded=0;" parent="1" vertex="1">
          <mxGeometry x="580" y="425" width="20" height="10" as="geometry" />
        </mxCell>
        <mxCell id="0ktrd48kV1cv61AAb-M5-11" style="edgeStyle=orthogonalEdgeStyle;rounded=0;orthogonalLoop=1;jettySize=auto;html=1;exitX=0.5;exitY=1;exitDx=0;exitDy=0;entryX=1;entryY=0.5;entryDx=0;entryDy=0;" parent="1" source="0ktrd48kV1cv61AAb-M5-10" target="FW-JDr_s4PCAu5C2hTzt-12" edge="1">
          <mxGeometry relative="1" as="geometry">
            <mxPoint x="770" y="770" as="targetPoint" />
          </mxGeometry>
        </mxCell>
        <mxCell id="0ktrd48kV1cv61AAb-M5-104" style="edgeStyle=orthogonalEdgeStyle;rounded=0;orthogonalLoop=1;jettySize=auto;html=1;exitX=0.75;exitY=0;exitDx=0;exitDy=0;entryX=0.5;entryY=1;entryDx=0;entryDy=0;" parent="1" source="0ktrd48kV1cv61AAb-M5-10" target="0ktrd48kV1cv61AAb-M5-99" edge="1">
          <mxGeometry relative="1" as="geometry" />
        </mxCell>
        <mxCell id="0ktrd48kV1cv61AAb-M5-105" style="edgeStyle=orthogonalEdgeStyle;rounded=0;orthogonalLoop=1;jettySize=auto;html=1;exitX=1;exitY=0.5;exitDx=0;exitDy=0;entryX=0;entryY=0.5;entryDx=0;entryDy=0;" parent="1" source="0ktrd48kV1cv61AAb-M5-10" target="0ktrd48kV1cv61AAb-M5-102" edge="1">
          <mxGeometry relative="1" as="geometry" />
        </mxCell>
        <mxCell id="0ktrd48kV1cv61AAb-M5-106" style="edgeStyle=orthogonalEdgeStyle;rounded=0;orthogonalLoop=1;jettySize=auto;html=1;exitX=1;exitY=1;exitDx=0;exitDy=0;entryX=0;entryY=0.5;entryDx=0;entryDy=0;" parent="1" source="0ktrd48kV1cv61AAb-M5-10" target="0ktrd48kV1cv61AAb-M5-103" edge="1">
          <mxGeometry relative="1" as="geometry" />
        </mxCell>
        <mxCell id="0ktrd48kV1cv61AAb-M5-107" style="edgeStyle=orthogonalEdgeStyle;rounded=0;orthogonalLoop=1;jettySize=auto;html=1;exitX=0.75;exitY=1;exitDx=0;exitDy=0;" parent="1" source="0ktrd48kV1cv61AAb-M5-10" target="0ktrd48kV1cv61AAb-M5-101" edge="1">
          <mxGeometry relative="1" as="geometry" />
        </mxCell>
        <mxCell id="qUaDmYmvCXXhJOkRJQls-4" style="edgeStyle=orthogonalEdgeStyle;rounded=0;orthogonalLoop=1;jettySize=auto;html=1;exitX=0.75;exitY=1;exitDx=0;exitDy=0;entryX=0;entryY=0.5;entryDx=0;entryDy=0;" parent="1" source="0ktrd48kV1cv61AAb-M5-10" target="qUaDmYmvCXXhJOkRJQls-3" edge="1">
          <mxGeometry relative="1" as="geometry" />
        </mxCell>
        <mxCell id="YsniumbaeWEUebJkwW_9-2" style="edgeStyle=orthogonalEdgeStyle;rounded=0;orthogonalLoop=1;jettySize=auto;html=1;exitX=0.25;exitY=1;exitDx=0;exitDy=0;entryX=0.5;entryY=0;entryDx=0;entryDy=0;" parent="1" source="0ktrd48kV1cv61AAb-M5-10" target="YsniumbaeWEUebJkwW_9-1" edge="1">
          <mxGeometry relative="1" as="geometry" />
        </mxCell>
        <mxCell id="0ktrd48kV1cv61AAb-M5-10" value="ComentariosSegundaMano" style="rounded=0;whiteSpace=wrap;html=1;" parent="1" vertex="1">
          <mxGeometry x="1140" y="630" width="181" height="60" as="geometry" />
        </mxCell>
        <mxCell id="0ktrd48kV1cv61AAb-M5-12" value="M" style="text;html=1;align=center;verticalAlign=middle;whiteSpace=wrap;rounded=0;" parent="1" vertex="1">
          <mxGeometry x="1210" y="615" width="20" height="10" as="geometry" />
        </mxCell>
        <mxCell id="0ktrd48kV1cv61AAb-M5-13" value="1" style="text;html=1;align=center;verticalAlign=middle;whiteSpace=wrap;rounded=0;" parent="1" vertex="1">
          <mxGeometry x="770" y="490" width="20" height="10" as="geometry" />
        </mxCell>
        <mxCell id="0ktrd48kV1cv61AAb-M5-14" value="M" style="text;html=1;align=center;verticalAlign=middle;whiteSpace=wrap;rounded=0;" parent="1" vertex="1">
          <mxGeometry x="1210" y="700" width="20" height="10" as="geometry" />
        </mxCell>
        <mxCell id="0ktrd48kV1cv61AAb-M5-15" value="1" style="text;html=1;align=center;verticalAlign=middle;whiteSpace=wrap;rounded=0;" parent="1" vertex="1">
          <mxGeometry x="770" y="855" width="20" height="10" as="geometry" />
        </mxCell>
        <mxCell id="0ktrd48kV1cv61AAb-M5-16" value="id" style="ellipse;whiteSpace=wrap;html=1;" parent="1" vertex="1">
          <mxGeometry x="-141.87" y="-50" width="75" height="40" as="geometry" />
        </mxCell>
        <mxCell id="0ktrd48kV1cv61AAb-M5-17" value="marcaModelo" style="ellipse;whiteSpace=wrap;html=1;" parent="1" vertex="1">
          <mxGeometry x="20" y="65" width="87.5" height="40" as="geometry" />
        </mxCell>
        <mxCell id="0ktrd48kV1cv61AAb-M5-18" value="imagen" style="ellipse;whiteSpace=wrap;html=1;" parent="1" vertex="1">
          <mxGeometry x="-261.87" y="65" width="87.5" height="40" as="geometry" />
        </mxCell>
        <mxCell id="0ktrd48kV1cv61AAb-M5-19" value="caracteristicas" style="ellipse;whiteSpace=wrap;html=1;" parent="1" vertex="1">
          <mxGeometry x="-186.87" y="205" width="87.5" height="40" as="geometry" />
        </mxCell>
        <mxCell id="0ktrd48kV1cv61AAb-M5-24" value="descripcion" style="ellipse;whiteSpace=wrap;html=1;" parent="1" vertex="1">
          <mxGeometry x="43.129999999999995" y="225" width="87.5" height="40" as="geometry" />
        </mxCell>
        <mxCell id="0ktrd48kV1cv61AAb-M5-28" style="edgeStyle=orthogonalEdgeStyle;rounded=0;orthogonalLoop=1;jettySize=auto;html=1;exitX=1;exitY=0.5;exitDx=0;exitDy=0;entryX=0;entryY=0.75;entryDx=0;entryDy=0;" parent="1" source="0ktrd48kV1cv61AAb-M5-27" target="FW-JDr_s4PCAu5C2hTzt-1" edge="1">
          <mxGeometry relative="1" as="geometry" />
        </mxCell>
        <mxCell id="0ktrd48kV1cv61AAb-M5-27" value="Entrega" style="ellipse;whiteSpace=wrap;html=1;" parent="1" vertex="1">
          <mxGeometry x="-241.87" y="145" width="87.5" height="40" as="geometry" />
        </mxCell>
        <mxCell id="0ktrd48kV1cv61AAb-M5-29" value="idproducto" style="ellipse;whiteSpace=wrap;html=1;" parent="1" vertex="1">
          <mxGeometry x="178.13" y="45" width="75" height="40" as="geometry" />
        </mxCell>
        <mxCell id="0ktrd48kV1cv61AAb-M5-30" value="idUsuario" style="ellipse;whiteSpace=wrap;html=1;" parent="1" vertex="1">
          <mxGeometry x="200.63" y="220" width="75" height="40" as="geometry" />
        </mxCell>
        <mxCell id="0ktrd48kV1cv61AAb-M5-35" value="idValoracion" style="ellipse;whiteSpace=wrap;html=1;" parent="1" vertex="1">
          <mxGeometry x="288.13" y="65" width="75" height="40" as="geometry" />
        </mxCell>
        <mxCell id="0ktrd48kV1cv61AAb-M5-42" style="edgeStyle=orthogonalEdgeStyle;rounded=0;orthogonalLoop=1;jettySize=auto;html=1;exitX=0.5;exitY=0;exitDx=0;exitDy=0;entryX=0;entryY=0.75;entryDx=0;entryDy=0;" parent="1" source="0ktrd48kV1cv61AAb-M5-36" target="FW-JDr_s4PCAu5C2hTzt-2" edge="1">
          <mxGeometry relative="1" as="geometry" />
        </mxCell>
        <mxCell id="0ktrd48kV1cv61AAb-M5-36" value="puntuacion" style="ellipse;whiteSpace=wrap;html=1;" parent="1" vertex="1">
          <mxGeometry x="118.13" y="185" width="87.5" height="40" as="geometry" />
        </mxCell>
        <mxCell id="0ktrd48kV1cv61AAb-M5-37" value="comentario" style="ellipse;whiteSpace=wrap;html=1;" parent="1" vertex="1">
          <mxGeometry x="288.13" y="180" width="87.5" height="40" as="geometry" />
        </mxCell>
        <mxCell id="wy2KGiXOY7XyAVy5TqoR-11" style="edgeStyle=orthogonalEdgeStyle;rounded=0;orthogonalLoop=1;jettySize=auto;html=1;exitX=0.5;exitY=1;exitDx=0;exitDy=0;" parent="1" source="0ktrd48kV1cv61AAb-M5-43" target="FW-JDr_s4PCAu5C2hTzt-1" edge="1">
          <mxGeometry relative="1" as="geometry" />
        </mxCell>
        <mxCell id="0ktrd48kV1cv61AAb-M5-43" value="Oferta" style="ellipse;whiteSpace=wrap;html=1;" parent="1" vertex="1">
          <mxGeometry x="-201.87" width="87.5" height="40" as="geometry" />
        </mxCell>
        <mxCell id="0ktrd48kV1cv61AAb-M5-56" style="edgeStyle=orthogonalEdgeStyle;rounded=0;orthogonalLoop=1;jettySize=auto;html=1;exitX=1;exitY=1;exitDx=0;exitDy=0;" parent="1" source="0ktrd48kV1cv61AAb-M5-45" target="0ktrd48kV1cv61AAb-M5-1" edge="1">
          <mxGeometry relative="1" as="geometry" />
        </mxCell>
        <mxCell id="0ktrd48kV1cv61AAb-M5-45" value="idValoracionUsuario" style="ellipse;whiteSpace=wrap;html=1;" parent="1" vertex="1">
          <mxGeometry x="455" y="50" width="125" height="40" as="geometry" />
        </mxCell>
        <mxCell id="0ktrd48kV1cv61AAb-M5-46" value="id_remitente" style="ellipse;whiteSpace=wrap;html=1;" parent="1" vertex="1">
          <mxGeometry x="610" y="60" width="75" height="40" as="geometry" />
        </mxCell>
        <mxCell id="0ktrd48kV1cv61AAb-M5-47" value="id_destinatario" style="ellipse;whiteSpace=wrap;html=1;" parent="1" vertex="1">
          <mxGeometry x="660" y="120" width="90" height="40" as="geometry" />
        </mxCell>
        <mxCell id="0ktrd48kV1cv61AAb-M5-49" value="id_remitente" style="ellipse;whiteSpace=wrap;html=1;" parent="1" vertex="1">
          <mxGeometry x="610" y="60" width="75" height="40" as="geometry" />
        </mxCell>
        <mxCell id="0ktrd48kV1cv61AAb-M5-50" value="puntuacion" style="ellipse;whiteSpace=wrap;html=1;" parent="1" vertex="1">
          <mxGeometry x="390" y="90" width="75" height="40" as="geometry" />
        </mxCell>
        <mxCell id="0ktrd48kV1cv61AAb-M5-51" value="comentario" style="ellipse;whiteSpace=wrap;html=1;" parent="1" vertex="1">
          <mxGeometry x="414" y="150" width="75" height="40" as="geometry" />
        </mxCell>
        <mxCell id="0ktrd48kV1cv61AAb-M5-52" value="fecha" style="ellipse;whiteSpace=wrap;html=1;" parent="1" vertex="1">
          <mxGeometry x="660" y="185" width="90" height="40" as="geometry" />
        </mxCell>
        <mxCell id="0ktrd48kV1cv61AAb-M5-53" value="fecha" style="ellipse;whiteSpace=wrap;html=1;" parent="1" vertex="1">
          <mxGeometry x="275.63" y="270" width="90" height="40" as="geometry" />
        </mxCell>
        <mxCell id="0ktrd48kV1cv61AAb-M5-61" value="id_usuario" style="ellipse;whiteSpace=wrap;html=1;" parent="1" vertex="1">
          <mxGeometry x="742.5" y="355" width="75" height="40" as="geometry" />
        </mxCell>
        <mxCell id="0ktrd48kV1cv61AAb-M5-65" value="nombre" style="ellipse;whiteSpace=wrap;html=1;" parent="1" vertex="1">
          <mxGeometry x="660" y="290" width="75" height="40" as="geometry" />
        </mxCell>
        <mxCell id="0ktrd48kV1cv61AAb-M5-66" value="contraseÃ±a" style="ellipse;whiteSpace=wrap;html=1;" parent="1" vertex="1">
          <mxGeometry x="489.13" y="250" width="75" height="40" as="geometry" />
        </mxCell>
        <mxCell id="0ktrd48kV1cv61AAb-M5-67" value="correo" style="ellipse;whiteSpace=wrap;html=1;" parent="1" vertex="1">
          <mxGeometry x="781" y="410" width="75" height="40" as="geometry" />
        </mxCell>
        <mxCell id="0ktrd48kV1cv61AAb-M5-68" value="&lt;div&gt;&lt;br&gt;&lt;/div&gt;direccion_calle&lt;div&gt;&lt;br&gt;&lt;/div&gt;" style="ellipse;whiteSpace=wrap;html=1;" parent="1" vertex="1">
          <mxGeometry x="430.13" y="330" width="90" height="30" as="geometry" />
        </mxCell>
        <mxCell id="0ktrd48kV1cv61AAb-M5-69" value="&lt;div&gt;&lt;br&gt;&lt;/div&gt;direccion_numero&lt;div&gt;&lt;br&gt;&lt;/div&gt;" style="ellipse;whiteSpace=wrap;html=1;" parent="1" vertex="1">
          <mxGeometry x="375.63" y="390" width="113.5" height="30" as="geometry" />
        </mxCell>
        <mxCell id="0ktrd48kV1cv61AAb-M5-70" value="&lt;div&gt;codigo_postal&lt;/div&gt;" style="ellipse;whiteSpace=wrap;html=1;" parent="1" vertex="1">
          <mxGeometry x="375.63" y="515" width="113.5" height="30" as="geometry" />
        </mxCell>
        <mxCell id="0ktrd48kV1cv61AAb-M5-71" value="latitud" style="ellipse;whiteSpace=wrap;html=1;" parent="1" vertex="1">
          <mxGeometry x="660" y="485" width="75" height="40" as="geometry" />
        </mxCell>
        <mxCell id="0ktrd48kV1cv61AAb-M5-72" value="longitud" style="ellipse;whiteSpace=wrap;html=1;" parent="1" vertex="1">
          <mxGeometry x="660" y="560" width="75" height="40" as="geometry" />
        </mxCell>
        <mxCell id="0ktrd48kV1cv61AAb-M5-73" value="Avatar" style="ellipse;whiteSpace=wrap;html=1;" parent="1" vertex="1">
          <mxGeometry x="589" y="595" width="75" height="40" as="geometry" />
        </mxCell>
        <mxCell id="0ktrd48kV1cv61AAb-M5-77" style="edgeStyle=orthogonalEdgeStyle;rounded=0;orthogonalLoop=1;jettySize=auto;html=1;exitX=1;exitY=0;exitDx=0;exitDy=0;entryX=0.061;entryY=0.83;entryDx=0;entryDy=0;entryPerimeter=0;" parent="1" source="FW-JDr_s4PCAu5C2hTzt-3" target="0ktrd48kV1cv61AAb-M5-61" edge="1">
          <mxGeometry relative="1" as="geometry" />
        </mxCell>
        <mxCell id="0ktrd48kV1cv61AAb-M5-81" style="edgeStyle=orthogonalEdgeStyle;rounded=0;orthogonalLoop=1;jettySize=auto;html=1;exitX=0.25;exitY=1;exitDx=0;exitDy=0;entryX=0.741;entryY=0.01;entryDx=0;entryDy=0;entryPerimeter=0;" parent="1" source="FW-JDr_s4PCAu5C2hTzt-3" target="0ktrd48kV1cv61AAb-M5-73" edge="1">
          <mxGeometry relative="1" as="geometry" />
        </mxCell>
        <mxCell id="0ktrd48kV1cv61AAb-M5-92" value="fechaSubida" style="ellipse;whiteSpace=wrap;html=1;" parent="1" vertex="1">
          <mxGeometry x="540" y="945" width="75" height="40" as="geometry" />
        </mxCell>
        <mxCell id="0ktrd48kV1cv61AAb-M5-93" value="fechaVenta" style="ellipse;whiteSpace=wrap;html=1;" parent="1" vertex="1">
          <mxGeometry x="405.5" y="895" width="75" height="40" as="geometry" />
        </mxCell>
        <mxCell id="0ktrd48kV1cv61AAb-M5-94" value="Activo" style="ellipse;whiteSpace=wrap;html=1;" parent="1" vertex="1">
          <mxGeometry x="405.5" y="835" width="75" height="40" as="geometry" />
        </mxCell>
        <mxCell id="0ktrd48kV1cv61AAb-M5-95" value="id_usuario" style="ellipse;whiteSpace=wrap;html=1;" parent="1" vertex="1">
          <mxGeometry x="640" y="805" width="75" height="40" as="geometry" />
        </mxCell>
        <mxCell id="0ktrd48kV1cv61AAb-M5-96" value="nombre/Titulo" style="ellipse;whiteSpace=wrap;html=1;" parent="1" vertex="1">
          <mxGeometry x="472.5" y="775" width="75" height="40" as="geometry" />
        </mxCell>
        <mxCell id="0ktrd48kV1cv61AAb-M5-97" value="imagen" style="ellipse;whiteSpace=wrap;html=1;" parent="1" vertex="1">
          <mxGeometry x="790" y="955" width="75" height="40" as="geometry" />
        </mxCell>
        <mxCell id="0ktrd48kV1cv61AAb-M5-98" value="descripcion" style="ellipse;whiteSpace=wrap;html=1;" parent="1" vertex="1">
          <mxGeometry x="730.5" y="905" width="75" height="40" as="geometry" />
        </mxCell>
        <mxCell id="0ktrd48kV1cv61AAb-M5-99" value="id_usuario" style="ellipse;whiteSpace=wrap;html=1;" parent="1" vertex="1">
          <mxGeometry x="1261" y="560" width="75" height="40" as="geometry" />
        </mxCell>
        <mxCell id="0ktrd48kV1cv61AAb-M5-100" value="id_producto" style="ellipse;whiteSpace=wrap;html=1;" parent="1" vertex="1">
          <mxGeometry x="589" y="760" width="75" height="40" as="geometry" />
        </mxCell>
        <mxCell id="0ktrd48kV1cv61AAb-M5-101" value="id_producto" style="ellipse;whiteSpace=wrap;html=1;" parent="1" vertex="1">
          <mxGeometry x="1226" y="737.5" width="75" height="40" as="geometry" />
        </mxCell>
        <mxCell id="0ktrd48kV1cv61AAb-M5-102" value="id_comentario" style="ellipse;whiteSpace=wrap;html=1;" parent="1" vertex="1">
          <mxGeometry x="1351" y="610" width="75" height="40" as="geometry" />
        </mxCell>
        <mxCell id="0ktrd48kV1cv61AAb-M5-103" value="comentario" style="ellipse;whiteSpace=wrap;html=1;" parent="1" vertex="1">
          <mxGeometry x="1351" y="675" width="75" height="40" as="geometry" />
        </mxCell>
        <mxCell id="0ktrd48kV1cv61AAb-M5-108" value="vendido" style="ellipse;whiteSpace=wrap;html=1;" parent="1" vertex="1">
          <mxGeometry x="385" y="775" width="75" height="40" as="geometry" />
        </mxCell>
        <mxCell id="0ktrd48kV1cv61AAb-M5-109" value="comprado" style="ellipse;whiteSpace=wrap;html=1;" parent="1" vertex="1">
          <mxGeometry x="623" y="1030" width="75" height="40" as="geometry" />
        </mxCell>
        <mxCell id="tZ9dOB1mtpPrXh-z9F5N-9" style="edgeStyle=orthogonalEdgeStyle;rounded=0;orthogonalLoop=1;jettySize=auto;html=1;exitX=0.5;exitY=0;exitDx=0;exitDy=0;entryX=0.5;entryY=1;entryDx=0;entryDy=0;" parent="1" source="tZ9dOB1mtpPrXh-z9F5N-1" target="tZ9dOB1mtpPrXh-z9F5N-7" edge="1">
          <mxGeometry relative="1" as="geometry" />
        </mxCell>
        <mxCell id="tZ9dOB1mtpPrXh-z9F5N-10" style="edgeStyle=orthogonalEdgeStyle;rounded=0;orthogonalLoop=1;jettySize=auto;html=1;exitX=0;exitY=0.5;exitDx=0;exitDy=0;entryX=0.5;entryY=1;entryDx=0;entryDy=0;" parent="1" source="tZ9dOB1mtpPrXh-z9F5N-1" target="tZ9dOB1mtpPrXh-z9F5N-8" edge="1">
          <mxGeometry relative="1" as="geometry" />
        </mxCell>
        <mxCell id="tZ9dOB1mtpPrXh-z9F5N-12" style="edgeStyle=orthogonalEdgeStyle;rounded=0;orthogonalLoop=1;jettySize=auto;html=1;exitX=0;exitY=1;exitDx=0;exitDy=0;entryX=1;entryY=0.5;entryDx=0;entryDy=0;" parent="1" source="tZ9dOB1mtpPrXh-z9F5N-1" target="tZ9dOB1mtpPrXh-z9F5N-11" edge="1">
          <mxGeometry relative="1" as="geometry" />
        </mxCell>
        <mxCell id="tZ9dOB1mtpPrXh-z9F5N-15" style="edgeStyle=orthogonalEdgeStyle;rounded=0;orthogonalLoop=1;jettySize=auto;html=1;exitX=0.25;exitY=1;exitDx=0;exitDy=0;entryX=0.5;entryY=0;entryDx=0;entryDy=0;" parent="1" source="tZ9dOB1mtpPrXh-z9F5N-1" target="tZ9dOB1mtpPrXh-z9F5N-13" edge="1">
          <mxGeometry relative="1" as="geometry" />
        </mxCell>
        <mxCell id="tZ9dOB1mtpPrXh-z9F5N-16" style="edgeStyle=orthogonalEdgeStyle;rounded=0;orthogonalLoop=1;jettySize=auto;html=1;exitX=0.75;exitY=1;exitDx=0;exitDy=0;entryX=0;entryY=0;entryDx=0;entryDy=0;" parent="1" source="tZ9dOB1mtpPrXh-z9F5N-1" target="tZ9dOB1mtpPrXh-z9F5N-14" edge="1">
          <mxGeometry relative="1" as="geometry" />
        </mxCell>
        <mxCell id="tZ9dOB1mtpPrXh-z9F5N-1" value="Compras" style="rounded=0;whiteSpace=wrap;html=1;" parent="1" vertex="1">
          <mxGeometry x="210" y="555" width="120" height="60" as="geometry" />
        </mxCell>
        <mxCell id="tZ9dOB1mtpPrXh-z9F5N-31" style="edgeStyle=orthogonalEdgeStyle;rounded=0;orthogonalLoop=1;jettySize=auto;html=1;exitX=0.5;exitY=1;exitDx=0;exitDy=0;entryX=0.5;entryY=0;entryDx=0;entryDy=0;" parent="1" source="tZ9dOB1mtpPrXh-z9F5N-2" target="tZ9dOB1mtpPrXh-z9F5N-30" edge="1">
          <mxGeometry relative="1" as="geometry" />
        </mxCell>
        <mxCell id="tZ9dOB1mtpPrXh-z9F5N-2" value="Ventas" style="rounded=0;whiteSpace=wrap;html=1;" parent="1" vertex="1">
          <mxGeometry x="210" y="715" width="120" height="60" as="geometry" />
        </mxCell>
        <mxCell id="tZ9dOB1mtpPrXh-z9F5N-5" style="edgeStyle=orthogonalEdgeStyle;rounded=0;orthogonalLoop=1;jettySize=auto;html=1;exitX=0.25;exitY=1;exitDx=0;exitDy=0;entryX=0.992;entryY=0.15;entryDx=0;entryDy=0;entryPerimeter=0;" parent="1" source="FW-JDr_s4PCAu5C2hTzt-3" target="tZ9dOB1mtpPrXh-z9F5N-2" edge="1">
          <mxGeometry relative="1" as="geometry" />
        </mxCell>
        <mxCell id="tZ9dOB1mtpPrXh-z9F5N-6" style="edgeStyle=orthogonalEdgeStyle;rounded=0;orthogonalLoop=1;jettySize=auto;html=1;exitX=0.25;exitY=0;exitDx=0;exitDy=0;entryX=1;entryY=0.867;entryDx=0;entryDy=0;entryPerimeter=0;" parent="1" source="FW-JDr_s4PCAu5C2hTzt-12" target="tZ9dOB1mtpPrXh-z9F5N-1" edge="1">
          <mxGeometry relative="1" as="geometry" />
        </mxCell>
        <mxCell id="tZ9dOB1mtpPrXh-z9F5N-7" value="id" style="ellipse;whiteSpace=wrap;html=1;" parent="1" vertex="1">
          <mxGeometry x="215" y="485" width="90" height="40" as="geometry" />
        </mxCell>
        <mxCell id="tZ9dOB1mtpPrXh-z9F5N-8" value="id_usuario" style="ellipse;whiteSpace=wrap;html=1;" parent="1" vertex="1">
          <mxGeometry x="110" y="510" width="90" height="40" as="geometry" />
        </mxCell>
        <mxCell id="tZ9dOB1mtpPrXh-z9F5N-11" value="id_producto" style="ellipse;whiteSpace=wrap;html=1;" parent="1" vertex="1">
          <mxGeometry x="90" y="595" width="90" height="40" as="geometry" />
        </mxCell>
        <mxCell id="tZ9dOB1mtpPrXh-z9F5N-13" value="fecha" style="ellipse;whiteSpace=wrap;html=1;" parent="1" vertex="1">
          <mxGeometry x="180" y="630" width="90" height="40" as="geometry" />
        </mxCell>
        <mxCell id="tZ9dOB1mtpPrXh-z9F5N-14" value="total" style="ellipse;whiteSpace=wrap;html=1;" parent="1" vertex="1">
          <mxGeometry x="290" y="630" width="90" height="40" as="geometry" />
        </mxCell>
        <mxCell id="tZ9dOB1mtpPrXh-z9F5N-17" style="edgeStyle=orthogonalEdgeStyle;rounded=0;orthogonalLoop=1;jettySize=auto;html=1;entryX=0.5;entryY=1;entryDx=0;entryDy=0;" parent="1" source="tZ9dOB1mtpPrXh-z9F5N-2" target="tZ9dOB1mtpPrXh-z9F5N-22" edge="1">
          <mxGeometry relative="1" as="geometry">
            <mxPoint x="172.5" y="750" as="sourcePoint" />
          </mxGeometry>
        </mxCell>
        <mxCell id="tZ9dOB1mtpPrXh-z9F5N-22" value="id" style="ellipse;whiteSpace=wrap;html=1;" parent="1" vertex="1">
          <mxGeometry x="117.5" y="680" width="90" height="40" as="geometry" />
        </mxCell>
        <mxCell id="tZ9dOB1mtpPrXh-z9F5N-26" style="edgeStyle=orthogonalEdgeStyle;rounded=0;orthogonalLoop=1;jettySize=auto;html=1;exitX=1;exitY=0.5;exitDx=0;exitDy=0;entryX=0;entryY=0.75;entryDx=0;entryDy=0;" parent="1" source="tZ9dOB1mtpPrXh-z9F5N-23" target="tZ9dOB1mtpPrXh-z9F5N-2" edge="1">
          <mxGeometry relative="1" as="geometry" />
        </mxCell>
        <mxCell id="tZ9dOB1mtpPrXh-z9F5N-23" value="id_usuario" style="ellipse;whiteSpace=wrap;html=1;" parent="1" vertex="1">
          <mxGeometry x="92.5" y="767.5" width="90" height="40" as="geometry" />
        </mxCell>
        <mxCell id="tZ9dOB1mtpPrXh-z9F5N-24" value="id_producto" style="ellipse;whiteSpace=wrap;html=1;" parent="1" vertex="1">
          <mxGeometry x="150" y="825" width="90" height="40" as="geometry" />
        </mxCell>
        <mxCell id="tZ9dOB1mtpPrXh-z9F5N-27" style="edgeStyle=orthogonalEdgeStyle;rounded=0;orthogonalLoop=1;jettySize=auto;html=1;exitX=0.5;exitY=0;exitDx=0;exitDy=0;entryX=0.375;entryY=0.917;entryDx=0;entryDy=0;entryPerimeter=0;" parent="1" source="tZ9dOB1mtpPrXh-z9F5N-24" target="tZ9dOB1mtpPrXh-z9F5N-2" edge="1">
          <mxGeometry relative="1" as="geometry" />
        </mxCell>
        <mxCell id="tZ9dOB1mtpPrXh-z9F5N-28" value="fecha" style="ellipse;whiteSpace=wrap;html=1;" parent="1" vertex="1">
          <mxGeometry x="295" y="825" width="90" height="40" as="geometry" />
        </mxCell>
        <mxCell id="tZ9dOB1mtpPrXh-z9F5N-29" style="edgeStyle=orthogonalEdgeStyle;rounded=0;orthogonalLoop=1;jettySize=auto;html=1;exitX=0.5;exitY=0;exitDx=0;exitDy=0;entryX=0.642;entryY=0.983;entryDx=0;entryDy=0;entryPerimeter=0;" parent="1" source="tZ9dOB1mtpPrXh-z9F5N-28" target="tZ9dOB1mtpPrXh-z9F5N-2" edge="1">
          <mxGeometry relative="1" as="geometry" />
        </mxCell>
        <mxCell id="tZ9dOB1mtpPrXh-z9F5N-30" value="total" style="ellipse;whiteSpace=wrap;html=1;" parent="1" vertex="1">
          <mxGeometry x="215" y="895" width="90" height="40" as="geometry" />
        </mxCell>
        <mxCell id="wy2KGiXOY7XyAVy5TqoR-1" value="activo" style="ellipse;whiteSpace=wrap;html=1;fillColor=#fff2cc;strokeColor=#d6b656;" parent="1" vertex="1">
          <mxGeometry x="18.13" y="160" width="87.5" height="40" as="geometry" />
        </mxCell>
        <mxCell id="wy2KGiXOY7XyAVy5TqoR-8" style="edgeStyle=orthogonalEdgeStyle;rounded=0;orthogonalLoop=1;jettySize=auto;html=1;exitX=1;exitY=0.5;exitDx=0;exitDy=0;entryX=0;entryY=0.5;entryDx=0;entryDy=0;" parent="1" source="wy2KGiXOY7XyAVy5TqoR-3" target="wy2KGiXOY7XyAVy5TqoR-7" edge="1">
          <mxGeometry relative="1" as="geometry" />
        </mxCell>
        <mxCell id="wy2KGiXOY7XyAVy5TqoR-9" style="edgeStyle=orthogonalEdgeStyle;rounded=0;orthogonalLoop=1;jettySize=auto;html=1;exitX=0;exitY=0.5;exitDx=0;exitDy=0;entryX=1;entryY=1;entryDx=0;entryDy=0;" parent="1" source="wy2KGiXOY7XyAVy5TqoR-3" target="wy2KGiXOY7XyAVy5TqoR-6" edge="1">
          <mxGeometry relative="1" as="geometry" />
        </mxCell>
        <mxCell id="wy2KGiXOY7XyAVy5TqoR-3" value="&lt;div&gt;Categoria&lt;/div&gt;" style="rounded=0;whiteSpace=wrap;html=1;" parent="1" vertex="1">
          <mxGeometry x="-100" y="975" width="120" height="60" as="geometry" />
        </mxCell>
        <mxCell id="wy2KGiXOY7XyAVy5TqoR-6" value="id" style="ellipse;whiteSpace=wrap;html=1;" parent="1" vertex="1">
          <mxGeometry x="-207.5" y="995" width="75" height="40" as="geometry" />
        </mxCell>
        <mxCell id="wy2KGiXOY7XyAVy5TqoR-7" value="nombre" style="ellipse;whiteSpace=wrap;html=1;" parent="1" vertex="1">
          <mxGeometry x="65" y="1020" width="75" height="40" as="geometry" />
        </mxCell>
        <mxCell id="wy2KGiXOY7XyAVy5TqoR-12" style="edgeStyle=orthogonalEdgeStyle;rounded=0;orthogonalLoop=1;jettySize=auto;html=1;exitX=0;exitY=1;exitDx=0;exitDy=0;entryX=0.75;entryY=0;entryDx=0;entryDy=0;" parent="1" source="wy2KGiXOY7XyAVy5TqoR-10" target="FW-JDr_s4PCAu5C2hTzt-1" edge="1">
          <mxGeometry relative="1" as="geometry" />
        </mxCell>
        <mxCell id="wy2KGiXOY7XyAVy5TqoR-10" value="id_categoria" style="ellipse;whiteSpace=wrap;html=1;" parent="1" vertex="1">
          <mxGeometry x="-16.87" y="-25" width="75" height="40" as="geometry" />
        </mxCell>
        <mxCell id="wy2KGiXOY7XyAVy5TqoR-15" style="edgeStyle=orthogonalEdgeStyle;rounded=0;orthogonalLoop=1;jettySize=auto;html=1;exitX=1;exitY=0.5;exitDx=0;exitDy=0;entryX=0.135;entryY=0.973;entryDx=0;entryDy=0;entryPerimeter=0;" parent="1" source="wy2KGiXOY7XyAVy5TqoR-3" target="FW-JDr_s4PCAu5C2hTzt-12" edge="1">
          <mxGeometry relative="1" as="geometry" />
        </mxCell>
        <mxCell id="wy2KGiXOY7XyAVy5TqoR-16" value="precio" style="ellipse;whiteSpace=wrap;html=1;fillColor=#fff2cc;strokeColor=#d6b656;" parent="1" vertex="1">
          <mxGeometry x="71.88" y="5" width="87.5" height="40" as="geometry" />
        </mxCell>
        <mxCell id="wy2KGiXOY7XyAVy5TqoR-19" style="edgeStyle=orthogonalEdgeStyle;rounded=0;orthogonalLoop=1;jettySize=auto;html=1;exitX=1;exitY=0;exitDx=0;exitDy=0;entryX=0;entryY=1;entryDx=0;entryDy=0;" parent="1" source="wy2KGiXOY7XyAVy5TqoR-18" target="FW-JDr_s4PCAu5C2hTzt-12" edge="1">
          <mxGeometry relative="1" as="geometry" />
        </mxCell>
        <mxCell id="wy2KGiXOY7XyAVy5TqoR-18" value="precio" style="ellipse;whiteSpace=wrap;html=1;fillColor=#fff2cc;strokeColor=#d6b656;" parent="1" vertex="1">
          <mxGeometry x="440" y="945" width="87.5" height="40" as="geometry" />
        </mxCell>
        <mxCell id="qUaDmYmvCXXhJOkRJQls-1" value="id_producto" style="ellipse;whiteSpace=wrap;html=1;" parent="1" vertex="1">
          <mxGeometry x="640" y="955" width="75" height="40" as="geometry" />
        </mxCell>
        <mxCell id="qUaDmYmvCXXhJOkRJQls-3" value="fecha" style="ellipse;whiteSpace=wrap;html=1;" parent="1" vertex="1">
          <mxGeometry x="1340" y="727.5" width="75" height="40" as="geometry" />
        </mxCell>
        <mxCell id="qUaDmYmvCXXhJOkRJQls-12" style="edgeStyle=orthogonalEdgeStyle;rounded=0;orthogonalLoop=1;jettySize=auto;html=1;exitX=1;exitY=0.5;exitDx=0;exitDy=0;entryX=0;entryY=0;entryDx=0;entryDy=0;" parent="1" source="qUaDmYmvCXXhJOkRJQls-5" edge="1">
          <mxGeometry relative="1" as="geometry">
            <mxPoint x="975.9357633272239" y="285.7451834381011" as="targetPoint" />
          </mxGeometry>
        </mxCell>
        <mxCell id="qUaDmYmvCXXhJOkRJQls-13" style="edgeStyle=orthogonalEdgeStyle;rounded=0;orthogonalLoop=1;jettySize=auto;html=1;exitX=1;exitY=0.25;exitDx=0;exitDy=0;entryX=0;entryY=0.5;entryDx=0;entryDy=0;" parent="1" source="qUaDmYmvCXXhJOkRJQls-5" target="qUaDmYmvCXXhJOkRJQls-10" edge="1">
          <mxGeometry relative="1" as="geometry" />
        </mxCell>
        <mxCell id="qUaDmYmvCXXhJOkRJQls-20" style="edgeStyle=orthogonalEdgeStyle;rounded=0;orthogonalLoop=1;jettySize=auto;html=1;exitX=0.5;exitY=1;exitDx=0;exitDy=0;" parent="1" source="qUaDmYmvCXXhJOkRJQls-5" target="qUaDmYmvCXXhJOkRJQls-19" edge="1">
          <mxGeometry relative="1" as="geometry" />
        </mxCell>
        <mxCell id="qUaDmYmvCXXhJOkRJQls-5" value="Favoritos" style="rounded=0;whiteSpace=wrap;html=1;" parent="1" vertex="1">
          <mxGeometry x="805.5" y="230" width="120" height="60" as="geometry" />
        </mxCell>
        <mxCell id="qUaDmYmvCXXhJOkRJQls-7" value="M" style="text;html=1;align=center;verticalAlign=middle;whiteSpace=wrap;rounded=0;" parent="1" vertex="1">
          <mxGeometry x="781" y="245" width="20" height="10" as="geometry" />
        </mxCell>
        <mxCell id="qUaDmYmvCXXhJOkRJQls-9" style="edgeStyle=orthogonalEdgeStyle;rounded=0;orthogonalLoop=1;jettySize=auto;html=1;exitX=0.5;exitY=1;exitDx=0;exitDy=0;" parent="1" source="qUaDmYmvCXXhJOkRJQls-8" target="qUaDmYmvCXXhJOkRJQls-5" edge="1">
          <mxGeometry relative="1" as="geometry" />
        </mxCell>
        <mxCell id="qUaDmYmvCXXhJOkRJQls-8" value="id" style="ellipse;whiteSpace=wrap;html=1;" parent="1" vertex="1">
          <mxGeometry x="872.5" y="160" width="90" height="40" as="geometry" />
        </mxCell>
        <mxCell id="qUaDmYmvCXXhJOkRJQls-10" value="id_producto" style="ellipse;whiteSpace=wrap;html=1;" parent="1" vertex="1">
          <mxGeometry x="973.5" y="200" width="90" height="40" as="geometry" />
        </mxCell>
        <mxCell id="qUaDmYmvCXXhJOkRJQls-15" value="1" style="text;html=1;align=center;verticalAlign=middle;whiteSpace=wrap;rounded=0;" parent="1" vertex="1">
          <mxGeometry x="610" y="425" width="20" height="10" as="geometry" />
        </mxCell>
        <mxCell id="qUaDmYmvCXXhJOkRJQls-16" style="edgeStyle=orthogonalEdgeStyle;rounded=0;orthogonalLoop=1;jettySize=auto;html=1;exitX=0.5;exitY=0;exitDx=0;exitDy=0;entryX=0.38;entryY=-0.021;entryDx=0;entryDy=0;entryPerimeter=0;" parent="1" source="FW-JDr_s4PCAu5C2hTzt-1" target="qUaDmYmvCXXhJOkRJQls-5" edge="1">
          <mxGeometry relative="1" as="geometry">
            <Array as="points">
              <mxPoint x="-40" y="-50" />
              <mxPoint x="851" y="-50" />
            </Array>
          </mxGeometry>
        </mxCell>
        <mxCell id="qUaDmYmvCXXhJOkRJQls-18" value="id_productousu" style="ellipse;whiteSpace=wrap;html=1;" parent="1" vertex="1">
          <mxGeometry x="973.5" y="265" width="90" height="40" as="geometry" />
        </mxCell>
        <mxCell id="qUaDmYmvCXXhJOkRJQls-19" value="id_usuario" style="ellipse;whiteSpace=wrap;html=1;" parent="1" vertex="1">
          <mxGeometry x="865" y="320" width="90" height="40" as="geometry" />
        </mxCell>
        <mxCell id="YsniumbaeWEUebJkwW_9-1" value="editado" style="ellipse;whiteSpace=wrap;html=1;fillColor=#FFD966;" parent="1" vertex="1">
          <mxGeometry x="1120" y="737.5" width="75" height="40" as="geometry" />
        </mxCell>
        <mxCell id="QuN_vF9S27K4gE4ot9k8-7" style="edgeStyle=orthogonalEdgeStyle;rounded=0;orthogonalLoop=1;jettySize=auto;html=1;exitX=0.5;exitY=0;exitDx=0;exitDy=0;entryX=0.5;entryY=1;entryDx=0;entryDy=0;" parent="1" source="QuN_vF9S27K4gE4ot9k8-1" target="QuN_vF9S27K4gE4ot9k8-5" edge="1">
          <mxGeometry relative="1" as="geometry" />
        </mxCell>
        <mxCell id="QuN_vF9S27K4gE4ot9k8-8" style="edgeStyle=orthogonalEdgeStyle;rounded=0;orthogonalLoop=1;jettySize=auto;html=1;exitX=0.5;exitY=0;exitDx=0;exitDy=0;entryX=0.5;entryY=1;entryDx=0;entryDy=0;" parent="1" source="QuN_vF9S27K4gE4ot9k8-1" target="QuN_vF9S27K4gE4ot9k8-6" edge="1">
          <mxGeometry relative="1" as="geometry" />
        </mxCell>
        <mxCell id="QuN_vF9S27K4gE4ot9k8-1" value="&lt;div&gt;Carrito&lt;/div&gt;" style="rounded=0;whiteSpace=wrap;html=1;" parent="1" vertex="1">
          <mxGeometry x="58.129999999999995" y="370" width="120" height="60" as="geometry" />
        </mxCell>
        <mxCell id="QuN_vF9S27K4gE4ot9k8-5" value="id_producto" style="ellipse;whiteSpace=wrap;html=1;" parent="1" vertex="1">
          <mxGeometry x="18.75" y="290" width="90" height="40" as="geometry" />
        </mxCell>
        <mxCell id="QuN_vF9S27K4gE4ot9k8-6" value="id_usuario" style="ellipse;whiteSpace=wrap;html=1;" parent="1" vertex="1">
          <mxGeometry x="150" y="290" width="90" height="40" as="geometry" />
        </mxCell>
      </root>
    </mxGraphModel>
  </diagram>
</mxfile>
